<svg width="75" height="75" viewBox="0 0 75 75" fill="none" xmlns="http://www.w3.org/2000/svg">
<path fill-rule="evenodd" clip-rule="evenodd" d="M50.9242 43.5756C49.5038 41.0306 45.147 39.0594 42.2315 37.102C38.1697 34.3748 37.0535 33.7361 34.3897 29.8005C32.219 26.5933 32.2414 20.7852 34.5765 17.8619C36.8832 23.4896 37.4476 26.5782 44.8681 30.7167C51.5605 34.449 54.0322 34.1416 58.8833 39.4483C63.1729 44.1411 64.8052 50.1712 61.9697 56.3755C52.9003 76.2203 22.4909 70.9646 15.7393 61.3849C5.08669 46.2698 22.5995 32.6626 29.7385 44.2584C26.0521 46.6102 22.9503 47.2139 23.6578 53.8996C24.05 57.6053 27.8066 60.7272 30.5643 62.1667C43.045 68.6815 57.9133 56.0974 50.9242 43.5758V43.5756ZM42.6902 48.0039C42.1133 47.1009 41.485 46.4088 40.7637 45.7084C39.3192 44.3054 37.5917 43.3657 35.7831 42.2652C33.7666 41.0382 32.0623 40.3579 30.1 39.0959C24.7361 35.6454 20.3214 32.6673 19.2445 24.2881C17.2533 8.79351 35.2568 1.8748 49.6165 8.74807C63.1817 15.2407 54.8697 29.2541 45.9194 23.6766C50.1308 16.7249 44.9022 10.9115 38.8438 10.6296C31.7721 10.3004 27.3265 15.5747 27.9766 22.8004C29.293 37.4315 48.9419 36.8284 44.4324 51.0891L42.6904 48.0039H42.6902ZM33.822 1.2602C21.8196 2.80069 16.9697 6.50287 9.7858 14.0824C4.05704 20.1267 -0.234353 30.6365 1.05494 41.9664C2.35087 53.3549 8.00822 60.5557 13.9494 66.0916C19.2593 71.039 31.3236 76.2721 41.9692 74.6642C53.8847 72.8645 60.0852 68.1632 65.8588 61.8976C72.7196 54.452 75.6458 44.2304 74.6275 33.7938C72.814 15.2062 55.3082 -1.49804 33.8222 1.2602H33.822Z" fill="white"/>
<path fill-rule="evenodd" clip-rule="evenodd" d="M50.8636 43.5328C49.4432 40.9878 45.0865 39.0166 42.171 37.0592C38.1092 34.332 36.9929 33.6934 34.3291 29.7578C32.1584 26.5506 32.1808 20.7424 34.516 17.8191C36.8226 23.4469 37.387 26.5354 44.8075 30.6739C51.5 34.4062 53.9716 34.0988 58.8227 39.4056C63.1124 44.0983 64.7446 50.1284 61.9091 56.3327C52.8398 76.1775 22.4303 70.9218 15.6787 61.3422C5.02611 46.227 22.539 32.6199 29.678 44.2156C25.9915 46.5674 22.8897 47.1711 23.5973 53.8568C23.9894 57.5625 27.7461 60.6844 30.5037 62.124C42.9845 68.6387 57.8528 56.0544 50.8636 43.5328ZM42.6296 47.9611C42.0527 47.0581 41.4244 46.366 40.7032 45.6656C39.2586 44.2626 37.5312 43.3229 35.7226 42.2225C33.706 40.9954 32.0018 40.3151 30.0394 39.0531C24.6755 35.6026 20.2608 32.6245 19.1839 24.2454C17.1928 8.75075 35.1962 1.83204 49.556 8.70531C63.1211 15.198 54.8091 29.2113 45.8588 23.6339C50.0702 16.6821 44.8416 10.8687 38.7832 10.5868C31.7115 10.2576 27.266 15.532 27.916 22.7577C29.2324 37.3887 48.8814 36.7856 44.3719 51.0463L42.6296 47.9611Z" fill="#217CAE"/>
</svg>
