<svg width="259" height="105" viewBox="0 0 259 105" fill="none" xmlns="http://www.w3.org/2000/svg">
<g clip-path="url(#clip0)">
<path fill-rule="evenodd" clip-rule="evenodd" d="M5.10337 73.7499L32.6811 73.7646C33.0638 73.3404 35.8956 67.7493 36.2999 66.8687L37.5056 64.5889C38.3698 63.0782 39.1652 61.4424 39.9028 60.0008L42.2939 55.402C43.8579 52.5985 45.6239 49.0239 47.0752 46.1897C47.7231 44.9246 51.3814 38.0853 51.8461 36.9777C52.1866 36.1669 52.6645 35.5026 53.0584 34.7006C53.4858 33.8308 53.8688 33.1488 54.2355 32.3495L70.9441 0.0892274L45.2252 0.0501537C44.7817 0.756621 37.6012 16.6579 36.9872 17.999L33.756 24.9039C32.6312 27.4405 30.3757 32.4489 29.5213 34.7728C28.6607 37.1137 26.4537 42.0866 25.8355 44.2475C25.6185 45.0059 25.5784 44.7669 25.3418 44.9382C25.3502 41.1854 25.5442 37.5516 25.5749 33.6334C25.5909 31.6162 25.6593 23.6082 25.5107 22.1572C25.3289 20.3832 25.3903 18.3831 25.3401 16.5675C25.2913 14.8064 25.2023 12.8936 25.1098 11.0724C24.9253 7.433 24.68 3.89648 24.5897 0.111555C23.7105 -0.0810226 0.853396 0.0257326 -0.00134277 0.0658529L0.621047 9.23807C0.798274 10.8994 0.83037 14.2409 1.0376 16.1642C1.11924 16.921 1.21064 17.7003 1.24553 18.4734C1.31809 20.1006 1.47439 21.4765 1.50614 23.1428L2.26459 34.6939C2.28133 35.6935 2.45961 36.1055 2.4781 37.0237C2.52485 39.3521 2.71812 39.665 2.76906 41.5863C2.81022 43.1279 3.02339 44.5901 3.08269 46.2458C3.17968 48.9607 3.37924 50.606 3.53169 53.1249C3.5753 53.8464 3.74486 54.5193 3.77032 55.357C3.81986 56.9824 3.99674 58.3566 4.03477 60.0242L4.31108 64.7343C4.53715 66.4836 4.51133 67.6345 4.69484 69.1821C4.82811 70.3079 4.71542 73.0602 5.10232 73.7496L5.10337 73.7499Z" fill="#265BA4"/>
<path fill-rule="evenodd" clip-rule="evenodd" d="M87.8801 51.2783C87.7933 52.2531 86.7282 55.4788 86.3322 56.4116C84.9126 59.7552 82.7751 61.8677 78.9584 62.4287C77.6459 62.6216 77.3662 62.6994 76.0216 62.452C74.1925 62.1154 72.7202 61.3806 72.4467 59.2588C72.0741 56.368 73.2163 55.0482 75.4494 53.9866C75.993 53.7281 75.912 53.6451 76.5951 53.4992C77.356 53.337 79.9876 52.8123 80.8357 52.7732C81.4658 52.7443 81.8795 52.7209 82.4356 52.6295C84.0663 52.3623 84.9437 52.3337 86.5555 51.7486C86.994 51.5895 87.3136 51.3439 87.8801 51.2787V51.2783ZM58.4743 36.7708L77.7642 36.7711C79.0188 36.7711 78.5185 36.7499 79.3327 35.1084C79.735 34.298 80.1411 33.7241 80.7697 33.1436C82.0662 31.9469 83.6214 31.5761 85.925 31.5743C88.9592 31.5757 91.4756 32.3914 91.47 35.5407C91.4641 38.8281 89.5006 39.7582 86.7986 40.4395L71.7231 41.8919C71.2469 41.9484 71.3153 42.0314 70.7745 42.0771C67.4613 42.3583 66.6624 42.6793 63.8041 43.4252C61.1893 44.1076 57.7176 45.8136 55.7563 47.3493C54.1888 48.577 52.3415 50.7341 51.5384 52.6578C50.3205 55.574 49.906 57.4049 49.906 61.0837C49.906 67.4559 52.7629 71.4554 57.2937 73.594C59.5527 74.6601 62.3817 75.2511 65.3625 75.4332C66.399 75.4964 71.5913 75.4681 72.4774 75.1831C73.5156 74.8489 74.2284 75.0226 76.5013 74.2261C79.2588 73.2598 78.6884 73.2039 81.2083 71.4167C83.2935 69.9378 85.2158 68.7903 87.2564 67.502L90.4723 65.7248C91.0891 65.3878 91.5116 65.1743 92.083 64.8913L93.7928 64.0642C95.1649 63.3239 99.4132 61.6343 100.844 61.1441C101.125 61.0482 101.361 60.9526 101.678 60.8284L106.491 59.3722C107.514 59.1545 107.533 59.1552 107.763 58.1393L109.18 52.1369C109.27 51.7563 109.332 51.4067 109.41 51.0899C109.471 50.8461 109.469 50.8112 109.551 50.591L111.495 41.8968C111.622 41.1279 111.861 40.6007 111.965 39.9727C113.006 33.67 113.806 27.578 107.746 23.2607L105.443 21.8739C105.142 21.7337 104.724 21.6464 104.474 21.532C103.184 20.9438 103.39 20.9836 101.849 20.4945C100.166 19.96 98.4667 19.6638 96.7024 19.3826C90.8756 18.4529 81.1008 18.5956 75.4697 19.5933C73.8809 19.8749 72.2388 20.3239 70.7519 20.8221C66.011 22.4108 61.864 25.9878 59.7362 30.5308C59.5482 30.932 59.3961 31.1721 59.2666 31.53L58.8291 32.57C58.7716 32.7263 58.7238 32.9478 58.6533 33.1544L57.8272 36.0392C57.6587 36.7994 57.7794 36.7711 58.4747 36.7711L58.4743 36.7708Z" fill="#265BA4"/>
<path fill-rule="evenodd" clip-rule="evenodd" d="M220.912 55.9256C219.903 55.7578 204.774 55.8852 201.769 55.8754C201.559 55.8747 201.334 55.8656 201.127 55.8681C200.997 55.8698 200.459 55.8674 200.439 56.054C200.434 56.0997 200.41 56.1151 200.404 56.1374L200.298 57.0092C200.141 58.4159 200.272 59.0404 200.416 60.3717C200.564 61.7417 200.913 63.1798 201.46 64.255C202.771 66.8325 204.478 69.0764 207.074 70.6108C207.801 71.0402 213.798 71.365 215.639 71.7477C216.802 71.9892 225.865 71.814 227.529 71.7648L231.895 71.2925C234.51 70.9834 235.541 70.826 238.076 70.1649C238.798 69.9765 239.257 69.8296 239.973 69.6489L245.063 68.1017C245.126 68.0793 245.446 67.9757 245.536 67.9377C245.744 67.8498 246.018 67.7148 246.341 67.5871L248.06 66.8604C248.426 66.717 248.598 66.6029 248.891 66.4501L250.553 65.6637C252.199 64.7961 252.138 65.0452 253.072 63.3245C255.454 58.935 255.702 51.9858 253.268 47.6242C250.901 43.3819 246.479 41.2845 241.65 39.8935L236.836 38.8033C236.419 38.7538 236.05 38.7667 235.608 38.6868L232.615 38.1237C231.972 37.9468 231.803 38.1073 230.102 37.5697C229.066 37.2421 227.25 36.7725 226.971 35.107C226.509 32.3474 229.767 30.9285 232.509 31.0339C233.779 31.0828 235.169 31.4292 236.128 32.2372C237.816 33.6599 236.831 35.2563 237.309 35.9321C237.555 36.1787 241.725 36.034 242.363 36.034C244.947 36.034 256.347 36.155 257.988 35.931C258.032 35.2368 258.092 32.7371 257.885 32.1807C257.3 30.6083 257.676 30.2203 256.313 27.8389C254.865 25.3089 252.422 23.2914 249.706 22.0459C249.228 21.8265 248.528 21.5613 248.02 21.2951C246.575 20.5367 242.83 19.8243 241.106 19.5337C240.736 19.4712 240.593 19.3149 240.143 19.2964C239.742 19.2797 239.392 19.3024 238.989 19.2385C236.827 18.8959 232.691 18.8363 230.663 19.0065C229.086 19.1391 227.54 19.1133 225.979 19.324C225.436 19.3973 224.596 19.6198 224.002 19.7262C223.594 19.7992 223.229 19.7814 222.837 19.8724C221.071 20.2837 219.77 20.6166 217.96 21.2369C213.682 22.7025 208.866 25.9355 207.077 30.2737C205.68 33.6627 205.409 34.8129 205.481 38.5124C205.592 44.1805 208.816 47.9546 213.446 50.351C214.722 51.0111 217.544 52.0546 218.929 52.2928C219.69 52.4237 220.134 52.6633 220.94 52.8004L225.99 53.771C226.38 53.8478 226.792 53.7986 227.185 53.8886C228.958 54.2943 231.016 54.4649 232.578 56.0324C233.544 57.0016 233.723 58.5363 232.943 59.8152C231.463 62.2427 224.152 62.7834 221.913 59.9115C220.909 58.6231 221.076 57.834 220.912 55.9274V55.9256Z" fill="#265BA4"/>
<path fill-rule="evenodd" clip-rule="evenodd" d="M144.31 57.4963L165.681 61.4577C166.293 58.9689 166.941 56.27 167.471 53.8349C167.623 53.134 167.711 52.5308 167.871 51.8711L170.079 42.336C170.314 41.1512 170.643 39.6085 170.973 38.4485L172.29 32.7839C172.401 32.1447 172.537 31.3835 172.708 30.7318C173.018 29.5442 173.439 28.2436 173.62 27.0494L174.464 23.0503C174.585 22.5696 174.726 21.5735 174.892 21.1535C175.338 20.0284 175.694 17.2011 176.286 15.4871C176.473 14.946 176.534 14.1181 176.702 13.5631C176.832 13.1336 176.827 13.2355 176.924 12.6501C176.994 12.229 177.068 12.2 177.143 11.6955L178.026 7.79688C178.19 7.14623 178.242 6.43244 178.442 5.83761C178.555 5.49781 178.64 5.42106 178.698 5.01078C178.763 4.54504 178.839 4.42119 178.91 4.03289C179.09 3.04663 179.703 0.617775 179.706 0.0815569C178.542 -0.0531081 162.409 0.0501583 159.48 0.0501583C156.973 0.0501583 157.717 -0.612352 156.77 3.13978L156.203 5.42385C155.984 6.08078 155.872 7.05588 155.691 7.78432L151.861 24.2972C151.764 24.6286 151.657 25.123 151.595 25.4003C151.489 25.8716 151.376 26.2648 151.305 26.5819L145.891 50.2275C145.724 51.0069 145.534 51.9352 145.332 52.6438C145.11 53.4253 144.316 56.832 144.31 57.4966V57.4963Z" fill="#265BA4"/>
<path fill-rule="evenodd" clip-rule="evenodd" d="M114.56 57.5657L125.353 56.5892C127.969 56.5582 131.645 56.516 134.26 56.6157C135.127 56.6489 136.124 56.8362 136.98 56.8003C137.204 56.4061 137.526 54.8902 137.631 54.3055C137.693 53.9605 137.794 53.7536 137.849 53.3517L141.683 36.6281C141.929 35.4395 142.502 33.5067 142.707 32.1493C142.798 31.5478 143.022 30.9272 143.153 30.3808L144.168 25.9979C144.223 25.6166 144.204 25.2775 144.317 24.9136L147.228 12.6309C147.503 10.9476 149.231 3.57064 149.678 1.92361L150.016 0.0847052L127.79 0.049469L126.712 4.30537C126.074 7.6542 125.209 11.0072 124.447 14.3794C124.194 15.5035 123.873 16.6945 123.638 17.91L119.459 35.8634C119.157 37.0359 118.558 40.2777 118.214 41.318L115.733 52.0957C115.375 53.3067 115.2 54.975 114.948 55.792C114.778 56.344 114.509 56.7849 114.56 57.5654L114.56 57.5657Z" fill="#265BA4"/>
<path fill-rule="evenodd" clip-rule="evenodd" d="M172.661 63.0978C173.258 63.4603 182.946 65.6407 183.272 65.7248L187.151 66.6933C188.341 66.9256 193.379 68.2559 193.845 68.2098L196.209 57.85C196.319 57.3913 196.528 56.7685 196.609 56.3844L197.944 50.3751C198.621 47.9965 199.93 40.9785 200.514 39.1644C200.908 37.9419 201.022 36.6466 201.368 35.3544L202.731 29.4061C202.872 28.5908 203.22 27.286 203.435 26.4152C203.557 25.924 203.607 25.3937 203.749 24.9018C203.838 24.5934 203.937 24.4786 203.99 24.2501L204.701 20.3246C201.875 20.1236 198.317 20.3075 195.411 20.3075L183.752 20.3071C181.923 20.2984 182.625 20.1417 181.891 23.095L180.541 28.7013C180.371 29.2728 180.285 29.9999 180.126 30.6348C179.995 31.1557 179.968 30.8884 179.889 31.5143C179.817 32.0865 179.747 32.0725 179.652 32.5731L178.361 38.2975C178.242 38.8159 178.188 38.5895 178.103 39.1529C178.025 39.6692 177.958 39.6936 177.888 40.1168C177.556 42.1071 176.954 44.0549 176.621 45.9092C176.505 46.5577 176.209 47.2652 176.111 47.769L174.84 53.5352C174.591 54.9062 173.787 57.6404 173.517 59.1712C173.408 59.7863 173.209 60.5168 173.088 61.1082C172.958 61.7428 172.685 62.3979 172.662 63.0978H172.661Z" fill="#265BA4"/>
<path fill-rule="evenodd" clip-rule="evenodd" d="M146.459 64.7141C146.213 64.5327 139.638 63.357 138.568 63.1899C132.552 62.25 127.022 61.7292 120.795 61.9088C119.345 61.9507 117.805 62.0564 116.344 62.1911C115.033 62.3121 113.394 62.4712 112.034 62.7001C102.146 64.3652 94.2558 67.3928 86.0098 72.3914C85.5134 72.6921 84.9754 73.0878 84.4706 73.3002C84.6363 73.4806 84.2797 73.7196 85.386 73.4168C85.6836 73.3351 86.0541 73.2961 86.3901 73.2141C86.9423 73.0791 87.7775 72.8882 88.2733 72.8233C88.9445 72.7354 89.5177 72.636 90.2409 72.5146C94.3946 71.8179 96.5548 71.7907 100.615 71.372C103.391 71.0859 110.917 71.3888 113.907 71.6138C120.26 72.0914 126.932 73.4345 132.936 75.5557C136.356 76.7642 139.629 77.9996 142.889 79.3964C143.516 79.6654 145.709 80.7288 146.136 80.6977C146.159 80.7218 146.191 80.7473 146.212 80.763C146.656 81.1052 149.071 82.0999 149.587 82.3322C150.761 82.8587 151.821 83.3296 152.956 83.8467C164.251 88.9925 175.363 94.2647 187.089 98.4718C193.538 100.786 195.986 101.327 202.212 102.862C205.847 103.758 211.521 104.413 215.441 104.414C231.376 104.421 241.572 97.1876 248.657 83.8966C249.046 83.1657 251.645 77.9144 251.603 77.0705L245.358 78.7727C239.146 80.338 230.821 81.3585 224.344 81.3609C218.591 81.363 215.077 81.0229 209.507 80.4207C207.163 80.1674 204.928 79.6637 202.725 79.3776C200.456 79.0828 198.327 78.4503 196.16 78.0906C195.085 77.9123 193.951 77.5586 192.886 77.3416C187.645 76.274 176.824 73.0428 171.371 71.4327C165.48 69.6929 155.813 66.7686 149.778 65.4488C148.724 65.2186 147.573 64.8631 146.458 64.7152L146.459 64.7141Z" fill="url(#paint0_linear)"/>
<path fill-rule="evenodd" clip-rule="evenodd" d="M183.998 14.4073L206.221 14.4185L207.043 10.949C207.373 8.94782 209.391 1.29285 209.342 0.0557438L187.037 0.0512085C186.784 1.05143 186.59 2.54774 186.291 3.63309L185.447 7.08693C185.321 7.66431 185.213 8.28531 185.062 8.84385C184.838 9.66789 183.886 13.8296 183.998 14.407V14.4073Z" fill="#265BA4"/>
<path d="M13.0423 89.7618H10.0162C9.9471 89.197 9.77406 88.7965 9.49741 88.5599C9.22075 88.3237 8.77698 88.2055 8.16611 88.2055C7.62431 88.2055 7.18926 88.3178 6.86063 88.5425C6.53199 88.7672 6.36767 89.064 6.36767 89.4332C6.36767 89.5256 6.37918 89.6149 6.40221 89.7011C6.42523 89.7876 6.4657 89.8654 6.52326 89.9345C6.58083 90.0036 6.63281 90.0643 6.67886 90.1162C6.72491 90.1679 6.79713 90.2199 6.89516 90.2718C6.9932 90.3238 7.071 90.3639 7.12856 90.3929C7.18612 90.4219 7.27857 90.4533 7.40522 90.4881C7.53186 90.5227 7.61559 90.5485 7.65606 90.5659C7.69652 90.5834 7.7827 90.6092 7.91562 90.6437C8.04819 90.6783 8.12599 90.6957 8.14901 90.6957C8.58685 90.8108 8.93572 90.9089 9.19528 90.9898C9.45485 91.0704 9.75453 91.1744 10.0943 91.301C10.4345 91.4277 10.7052 91.5519 10.9069 91.6729C11.1085 91.794 11.3189 91.9468 11.538 92.131C11.7571 92.3155 11.9214 92.5144 12.0309 92.7276C12.1405 92.9407 12.2326 93.1916 12.3076 93.4797C12.3826 93.7679 12.4199 94.0906 12.4199 94.4482C12.4199 95.0245 12.316 95.552 12.1087 96.0303C11.9011 96.5086 11.6245 96.9036 11.2788 97.2148C10.933 97.526 10.5238 97.7911 10.0511 98.0102C9.57835 98.2293 9.08853 98.3849 8.58127 98.477C8.07401 98.5694 7.54965 98.6155 7.00785 98.6155C6.03938 98.6155 5.18638 98.4857 4.44852 98.2265C3.71065 97.9673 3.10571 97.5176 2.63298 96.8778C2.16026 96.2379 1.92407 95.4397 1.92407 94.4827C1.92407 94.4021 1.93 94.3271 1.94152 94.2581H5.10579V94.2755C5.10579 95.5552 5.83215 96.195 7.28451 96.195C7.89538 96.195 8.38555 96.0684 8.75431 95.8147C9.12307 95.5611 9.30762 95.221 9.30762 94.7946C9.30762 94.587 9.26436 94.4084 9.17784 94.2584C9.09132 94.1087 8.93851 93.9762 8.71977 93.8607C8.50068 93.7456 8.2931 93.6563 8.09738 93.5928C7.90131 93.5293 7.60756 93.44 7.21543 93.3248C6.8233 93.2097 6.50059 93.1057 6.24696 93.0136C5.29035 92.6909 4.55806 92.2932 4.0508 91.8205C3.54354 91.3478 3.28991 90.6619 3.28991 89.7628C3.28991 88.5753 3.7424 87.6215 4.64738 86.901C5.55235 86.1806 6.74829 85.8202 8.23553 85.8202C9.80337 85.8202 10.9962 86.1461 11.815 86.7971C12.6334 87.4484 13.0427 88.3907 13.0427 89.6243V89.7625L13.0423 89.7618ZM14.4776 92.1652C14.6272 91.3928 14.9301 90.7791 15.3853 90.3238C15.8406 89.8685 16.3479 89.5689 16.9068 89.4248C17.466 89.2807 18.1488 89.2088 18.9557 89.2088C20.2354 89.2088 21.215 89.4049 21.8953 89.7967C22.5753 90.1885 22.9154 90.7536 22.9154 91.4912C22.9154 91.8139 22.8404 92.3442 22.6907 93.082L22.0338 96.1427C21.8841 96.846 21.8091 97.3473 21.8091 97.647C21.8091 97.8891 21.8437 98.1313 21.9131 98.3734H18.9735C18.9735 98.3388 18.9707 98.2984 18.9648 98.2523C18.9588 98.2063 18.9533 98.1717 18.9473 98.1483C18.9414 98.1253 18.9386 98.0964 18.9386 98.0618C18.9386 98.0043 18.9442 97.9205 18.9561 97.811C18.9676 97.7014 18.9731 97.6006 18.9731 97.5085C18.3047 98.2809 17.3593 98.6671 16.1375 98.6671C15.25 98.6671 14.5494 98.4425 14.0366 97.9928C13.5238 97.5431 13.267 96.9266 13.267 96.1427C13.267 95.67 13.3591 95.2551 13.5436 94.8976C13.7282 94.5403 13.9616 94.2549 14.2442 94.0418C14.5264 93.8286 14.8809 93.65 15.3075 93.5059C15.7342 93.3618 16.1316 93.261 16.5007 93.2034C16.8694 93.1459 17.2902 93.0995 17.7629 93.0649C18.7199 92.9958 19.3077 92.9152 19.5268 92.8228C19.9186 92.6728 20.1147 92.3675 20.1147 91.9063C20.1147 91.3415 19.6824 91.0589 18.8179 91.0589C18.3801 91.0589 18.0399 91.1395 17.7978 91.301C17.5557 91.4625 17.3655 91.7507 17.227 92.1655H14.4776V92.1652ZM19.6475 94.2228C19.3939 94.4074 18.9156 94.54 18.2123 94.6205C17.4283 94.7011 16.9155 94.8222 16.6734 94.9837C16.3737 95.1798 16.2237 95.4735 16.2237 95.8657C16.2237 96.1769 16.3276 96.419 16.5349 96.592C16.7425 96.7651 17.0306 96.8516 17.3994 96.8516C18.4484 96.8516 19.1113 96.3098 19.388 95.2262L19.6475 94.2232V94.2228ZM28.1897 89.4502L27.913 90.6605C28.743 89.692 29.7631 89.2081 30.9737 89.2081C31.7806 89.2081 32.4288 89.4213 32.919 89.848C33.4088 90.2746 33.6537 90.8395 33.6537 91.5424C33.6537 91.9691 33.5962 92.453 33.4807 92.9948L32.3395 98.3723H29.3654L30.472 93.2195C30.5181 93.0234 30.5411 92.7987 30.5411 92.5451C30.5411 92.2109 30.4458 91.9545 30.2557 91.7755C30.0656 91.5969 29.7917 91.5075 29.4345 91.5075C28.9272 91.5075 28.5009 91.6834 28.1548 92.035C27.8091 92.3867 27.5669 92.8908 27.4284 93.5481L26.4083 98.3723H23.4687L25.3708 89.4499H28.1893L28.1897 89.4502ZM39.2388 89.4502L37.3539 98.3727H34.4143L36.2989 89.4502H39.2385H39.2388ZM39.9652 86.0439L39.4809 88.2745H36.5413L37.0256 86.0439H39.9652ZM46.7263 89.4502L46.2941 91.3352H44.4956L43.7348 94.759C43.6308 95.1969 43.5792 95.5025 43.5792 95.6755C43.5792 95.9061 43.6454 96.0677 43.778 96.1598C43.9106 96.2519 44.1384 96.2979 44.4611 96.2979C44.4841 96.2979 44.8068 96.2805 45.4296 96.2463L44.9628 98.373C44.4555 98.4536 43.8677 98.4941 43.1992 98.4941C41.3893 98.4941 40.4843 97.8602 40.4843 96.592C40.4843 96.3154 40.5764 95.7561 40.761 94.9146L41.5389 91.3352H40.0346L40.4669 89.4502H41.9541L42.5765 86.7357H45.4987L44.9108 89.4502H46.7263V89.4502ZM47.4698 92.1652C47.6195 91.3928 47.9223 90.7791 48.3776 90.3238C48.8328 89.8685 49.3401 89.5689 49.899 89.4248C50.4582 89.2807 51.141 89.2088 51.9479 89.2088C53.2276 89.2088 54.2072 89.4049 54.8875 89.7967C55.5675 90.1885 55.9076 90.7536 55.9076 91.4912C55.9076 91.8139 55.8326 92.3442 55.683 93.082L55.026 96.1427C54.8764 96.846 54.8014 97.3473 54.8014 97.647C54.8014 97.8891 54.8359 98.1313 54.9053 98.3734H51.9657C51.9657 98.3388 51.9629 98.2984 51.957 98.2523C51.9511 98.2063 51.9455 98.1717 51.9396 98.1483C51.9336 98.1253 51.9308 98.0964 51.9308 98.0618C51.9308 98.0043 51.9364 97.9205 51.9483 97.811C51.9598 97.7014 51.9654 97.6006 51.9654 97.5085C51.2969 98.2809 50.3515 98.6671 49.1297 98.6671C48.2422 98.6671 47.5417 98.4425 47.0288 97.9928C46.516 97.5431 46.2592 96.9266 46.2592 96.1427C46.2592 95.67 46.3513 95.2551 46.5359 94.8976C46.7204 94.5403 46.9538 94.2549 47.2364 94.0418C47.5186 93.8286 47.8731 93.65 48.2998 93.5059C48.7264 93.3618 49.1238 93.261 49.4929 93.2034C49.8617 93.1459 50.2824 93.0995 50.7551 93.0649C51.7121 92.9958 52.2999 92.9152 52.519 92.8228C52.9108 92.6728 53.1069 92.3675 53.1069 91.9063C53.1069 91.3415 52.6746 91.0589 51.8101 91.0589C51.3723 91.0589 51.0321 91.1395 50.79 91.301C50.5479 91.4625 50.3578 91.7507 50.2193 92.1655H47.4698V92.1652ZM52.6397 94.2228C52.3861 94.4074 51.9078 94.54 51.2045 94.6205C50.4206 94.7011 49.9077 94.8222 49.6656 94.9837C49.3659 95.1798 49.2159 95.4735 49.2159 95.8657C49.2159 96.1769 49.3199 96.419 49.5271 96.592C49.7347 96.7651 50.0228 96.8516 50.3916 96.8516C51.4407 96.8516 52.1035 96.3098 52.3802 95.2262L52.6397 94.2232V94.2228ZM64.6745 89.3121L64.1211 91.9576C63.6945 91.8425 63.3198 91.7846 62.9971 91.7846C62.1786 91.7846 61.5618 92.012 61.147 92.4676C60.7318 92.9229 60.4322 93.5715 60.248 94.413L59.4005 98.3727H56.4784L58.3804 89.4502H61.1644L60.8187 90.972C61.2339 90.3842 61.663 89.9432 62.1071 89.6491C62.5509 89.355 63.1014 89.2081 63.7583 89.2081C64.035 89.2081 64.3406 89.2427 64.6748 89.3117L64.6745 89.3121ZM73.839 89.4502L69.0839 98.3552C68.7496 98.9776 68.4758 99.4503 68.2626 99.7731C68.0495 100.096 67.7756 100.404 67.4414 100.698C67.1072 100.992 66.7325 101.191 66.3173 101.295C65.9021 101.399 65.3834 101.45 64.761 101.45C64.2192 101.45 63.6774 101.416 63.1356 101.346L63.6024 99.0296C63.833 99.0641 64.2248 99.0812 64.7781 99.0812C65.4238 99.0812 65.8442 98.7816 66.0403 98.1822L64.3804 89.4499H67.3545L67.7522 92.424C67.9134 93.5307 68.0174 94.6429 68.0634 95.7614C68.248 94.9659 68.6572 93.9054 69.2911 92.5796L70.7609 89.4499H73.8387L73.839 89.4502ZM96.4216 86.0613L90.5598 98.3727H87.3955L87.2399 94.2399C87.1593 92.5915 87.1939 91.1737 87.3435 89.9861C86.8823 91.473 86.306 93.0122 85.6145 94.6027L83.9717 98.3723H80.7383L79.8564 86.0609H83.0726L83.1591 92.6316C83.1707 93.208 83.1302 94.0205 83.0381 95.0695C83.4417 93.6748 84.0467 92.0494 84.8536 90.1933L86.6521 86.0606H89.5742L89.6953 90.1414C89.7413 92.2165 89.7127 93.8705 89.6088 95.1041C89.943 93.8359 90.5657 92.1184 91.4763 89.9512L93.1191 86.0606H96.4216V86.0613ZM95.1939 92.1652C95.3435 91.3928 95.6464 90.7791 96.1016 90.3238C96.5569 89.8685 97.0642 89.5689 97.6231 89.4248C98.1823 89.2807 98.8651 89.2088 99.672 89.2088C100.952 89.2088 101.931 89.4049 102.612 89.7967C103.292 90.1885 103.632 90.7536 103.632 91.4912C103.632 91.8139 103.557 92.3442 103.407 93.082L102.75 96.1427C102.6 96.846 102.525 97.3473 102.525 97.647C102.525 97.8891 102.56 98.1313 102.629 98.3734H99.6898C99.6898 98.3388 99.687 98.2984 99.6811 98.2523C99.6751 98.2063 99.6696 98.1717 99.6636 98.1483C99.6577 98.1253 99.6549 98.0964 99.6549 98.0618C99.6549 98.0043 99.6605 97.9205 99.6724 97.811C99.6839 97.7014 99.6895 97.6006 99.6895 97.5085C99.021 98.2809 98.0756 98.6671 96.8538 98.6671C95.9663 98.6671 95.2657 98.4425 94.7529 97.9928C94.2401 97.5431 93.9833 96.9266 93.9833 96.1427C93.9833 95.67 94.0754 95.2551 94.2599 94.8976C94.4445 94.5403 94.6779 94.2549 94.9605 94.0418C95.2427 93.8286 95.5972 93.65 96.0238 93.5059C96.4505 93.3618 96.8479 93.261 97.217 93.2034C97.5858 93.1459 98.0065 93.0995 98.4792 93.0649C99.4362 92.9958 100.024 92.9152 100.243 92.8228C100.635 92.6728 100.831 92.3675 100.831 91.9063C100.831 91.3415 100.399 91.0589 99.5342 91.0589C99.0964 91.0589 98.7562 91.1395 98.5141 91.301C98.272 91.4625 98.0818 91.7507 97.9433 92.1655H95.1939V92.1652ZM100.364 94.2228C100.11 94.4074 99.6319 94.54 98.9286 94.6205C98.1446 94.7011 97.6318 94.8222 97.3897 94.9837C97.09 95.1798 96.94 95.4735 96.94 95.8657C96.94 96.1769 97.044 96.419 97.2512 96.592C97.4588 96.7651 97.7469 96.8516 98.1157 96.8516C99.1648 96.8516 99.8276 96.3098 100.104 95.2262L100.364 94.2232V94.2228ZM112.399 89.3121L111.845 91.9576C111.419 91.8425 111.044 91.7846 110.721 91.7846C109.903 91.7846 109.286 92.012 108.871 92.4676C108.456 92.9229 108.156 93.5715 107.972 94.413L107.125 98.3727H104.202L106.105 89.4502H108.889L108.543 90.972C108.958 90.3842 109.387 89.9432 109.831 89.6491C110.275 89.355 110.825 89.2081 111.482 89.2081C111.759 89.2081 112.065 89.2427 112.399 89.3117L112.399 89.3121ZM121.01 95.7097C120.71 96.7127 120.142 97.4534 119.307 97.9317C118.471 98.41 117.488 98.6493 116.358 98.6493C115.033 98.6493 113.989 98.3005 113.229 97.6031C112.468 96.9057 112.087 95.8999 112.087 94.5857C112.087 93.0178 112.574 91.7326 113.548 90.7296C114.522 89.7266 115.764 89.2252 117.275 89.2252C118.6 89.2252 119.638 89.5797 120.387 90.2886C121.136 90.9975 121.511 91.9743 121.511 93.2195C121.511 93.6346 121.465 94.1014 121.373 94.6202H114.871C114.859 94.7123 114.854 94.8163 114.854 94.9314C114.854 95.4962 115 95.9285 115.295 96.2282C115.589 96.5278 116.006 96.6775 116.548 96.6775C117.297 96.6775 117.828 96.3548 118.139 95.709H121.009L121.01 95.7097ZM115.131 92.9777H118.762V92.7701C118.762 92.2744 118.623 91.8882 118.346 91.6115C118.07 91.3349 117.695 91.1964 117.222 91.1964C116.715 91.1964 116.277 91.352 115.908 91.6631C115.539 91.9743 115.28 92.4125 115.13 92.9774L115.131 92.9777Z" fill="#265BA4"/>
</g>
<defs>
<linearGradient id="paint0_linear" x1="85.2552" y1="72.8715" x2="253.586" y2="78.668" gradientUnits="userSpaceOnUse">
<stop stop-color="#0D91C9"/>
<stop offset="1" stop-color="#29A7DF"/>
</linearGradient>
<clipPath id="clip0">
<rect width="258.031" height="104.414" fill="white"/>
</clipPath>
</defs>
</svg>
